<?xml version="1.0" encoding="utf-8"?>
<!-- Generator: Adobe Illustrator 16.0.0, SVG Export Plug-In . SVG Version: 6.00 Build 0)  -->
<!DOCTYPE svg PUBLIC "-//W3C//DTD SVG 1.1//EN" "http://www.w3.org/Graphics/SVG/1.1/DTD/svg11.dtd">
<svg version="1.1" id="Layer_1" xmlns="http://www.w3.org/2000/svg" xmlns:xlink="http://www.w3.org/1999/xlink" x="0px" y="0px"
	 width="283.277px" height="283.46px" viewBox="1275.595 0 283.277 283.46" enable-background="new 1275.595 0 283.277 283.46"
	 xml:space="preserve">
<g>
	<circle fill="#2C5871" cx="1417.325" cy="141.73" r="141.73"/>
	<path fill="#0F303F" d="M1488.003,65.936c-6.423-7.049-15.247-11.987-25.43-13.419c-22.221-3.126-42.791,11.584-47.365,33.21
		l-0.429-0.388c-0.538-0.569-19.368-19.399-19.938-19.938c-7.732-8.172-18.651-13.297-30.789-13.297
		c-23.431,0-42.426,18.995-42.426,42.425c0,12.138,5.125,23.057,13.298,30.789c0.538,0.57,24.103,24.151,24.542,24.579
		c-5.477,0.071-9.938,4.562-9.938,10.053v5.553l-5.485-4.207h-5.484v23.346l10.967,9.97v14.754c0,3.188,1.533,6.013,3.867,7.86
		c0.49,0.618,66.054,66.041,66.18,66.18c77.236-1.209,139.484-64.152,139.484-141.674c0-1.633-0.068-3.249-0.122-4.867l-0.159-0.159
		C1558.247,136.126,1488.562,66.482,1488.003,65.936z"/>
	<path fill="#A6DAE8" d="M1364.052,52.1c-23.431,0-42.426,18.995-42.426,42.425c0,23.431,18.995,42.426,42.426,42.426
		s42.426-18.995,42.426-42.426C1406.478,71.095,1387.482,52.1,1364.052,52.1z M1385.796,67.463l-10.384,10.383
		c-2.287-1.494-4.811-2.472-7.407-2.945V60.042C1374.546,60.782,1380.677,63.339,1385.796,67.463z M1360.29,60.017v14.967
		c-2.528,0.516-4.975,1.514-7.194,2.999l-10.633-10.632C1347.611,63.245,1353.754,60.72,1360.29,60.017z M1336.989,72.784
		l10.633,10.633c-1.508,2.205-2.528,4.637-3.066,7.157h-14.984C1330.309,84.035,1332.865,77.903,1336.989,72.784z M1329.544,98.287
		h14.861c0.447,2.602,1.402,5.13,2.871,7.43l-10.396,10.397C1332.772,110.969,1330.243,104.824,1329.544,98.287z M1342.308,121.587
		l10.283-10.284c2.296,1.645,4.854,2.758,7.51,3.325v14.377C1353.562,128.271,1347.43,125.714,1342.308,121.587z M1367.813,129.037
		v-14.252c2.74-0.473,5.405-1.502,7.801-3.107l10.025,10.026C1380.493,125.805,1374.351,128.333,1367.813,129.037z M1391.113,116.27
		l-10.025-10.026c1.63-2.381,2.695-5.031,3.194-7.767h14.252C1397.798,105.019,1395.241,111.15,1391.113,116.27z M1398.563,90.767
		h-14.36c-0.544-2.665-1.636-5.233-3.257-7.543l10.283-10.284C1395.331,78.085,1397.86,84.228,1398.563,90.767z"/>
	<circle fill="#FDC00F" cx="1364.12" cy="94.934" r="13.385"/>
	<path fill="#F29A00" d="M1364.105,81.548v26.77c7.393,0,13.386-5.993,13.386-13.385S1371.498,81.548,1364.105,81.548z"/>
	<circle fill="#0F303F" cx="1364.347" cy="94.832" r="6.327"/>
	<path fill="#A6DAE8" d="M1462.574,52.514c-23.201-3.265-44.656,12.9-47.922,36.102c-3.266,23.201,12.9,44.656,36.101,47.922
		c23.201,3.265,44.656-12.9,47.923-36.102C1501.94,77.234,1485.775,55.779,1462.574,52.514z M1481.965,70.757l-11.729,8.835
		c-2.058-1.797-4.419-3.118-6.925-3.948l2.069-14.714C1471.755,62.574,1477.47,65.958,1481.965,70.757z M1457.747,59.83
		l-2.087,14.822c-2.573,0.159-5.136,0.805-7.54,1.967l-9.048-12.01C1444.741,61.261,1451.176,59.615,1457.747,59.83z
		 M1432.896,69.227l9.048,12.01c-1.8,1.973-3.149,4.241-4.034,6.661l-14.838-2.086C1424.71,79.434,1428.097,73.72,1432.896,69.227z
		 M1421.965,93.443l14.715,2.069c0.082,2.639,0.675,5.275,1.809,7.755l-11.743,8.847
		C1423.399,106.45,1421.753,100.013,1421.965,93.443z M1431.362,118.293l11.616-8.75c2.047,1.947,4.422,3.407,6.973,4.34
		l-2.004,14.238C1441.572,126.479,1435.858,123.092,1431.362,118.293z M1455.581,129.224l1.984-14.113
		c2.781-0.085,5.562-0.734,8.158-1.99l8.531,11.324C1468.589,127.792,1462.151,129.439,1455.581,129.224z M1480.433,119.827
		l-8.532-11.324c1.944-2.132,3.37-4.606,4.243-7.246l14.113,1.984C1488.618,109.617,1485.231,115.331,1480.433,119.827z
		 M1491.362,95.611l-14.222-2.001c-0.167-2.713-0.89-5.408-2.174-7.926l11.616-8.75
		C1489.931,82.603,1491.577,89.038,1491.362,95.611z"/>
	<circle fill="#FDC00F" cx="1456.661" cy="94.937" r="13.385"/>
	<path fill="#F29A00" d="M1458.526,81.682l-3.73,26.509c7.318,1.029,14.088-4.07,15.119-11.389
		C1470.944,89.482,1465.845,82.714,1458.526,81.682z"/>
	<circle fill="#0F303F" cx="1456.922" cy="94.868" r="6.327"/>
	<rect x="1471.126" y="164.361" fill="#A6DAE8" width="11.948" height="23.357"/>
	<rect x="1471.126" y="176.029" fill="#95C2D8" width="11.948" height="11.678"/>
	<polygon fill="#FC611F" points="1501.088,198.582 1483.077,187.718 1483.077,164.361 1501.088,153.5 	"/>
	<polygon fill="#E64500" points="1483.077,176.04 1483.077,187.721 1501.088,198.582 1501.088,176.04 	"/>
	<path fill="#14B0BF" d="M1450.51,149.775c-5.034-0.541-9.005-4.785-9.005-9.958v-24.57c0-5.536-4.53-10.066-10.066-10.066h-42.224
		c-5.536,0-10.065,4.53-10.065,10.066v24.57c0,5.536-4.53,10.065-10.066,10.065h-9.49c-5.535,0-10.065,4.529-10.065,10.065v49.415
		c0,5.537,4.53,10.066,10.065,10.066h26.954h74.513h10.066v-10.066v-49.418v-10.174h-20.616V149.775z"/>
	<path fill="#3387B5" d="M1450.51,149.775c-5.034-0.541-9.005-4.785-9.005-9.958v-24.57c0-5.536-4.53-10.066-10.066-10.066h-21.114
		v114.249h50.733h10.065v-10.065v-49.418v-10.174h-20.613V149.775z"/>
	<rect x="1360.944" y="162.309" fill="#FDC00F" width="99.892" height="47.017"/>
	<rect x="1410.327" y="162.309" fill="#F29A00" width="50.495" height="47.017"/>
	<rect x="1344.051" y="165.512" fill="#A6DAE8" width="5.485" height="14.933"/>
	<rect x="1344.051" y="172.967" fill="#95C2D8" width="5.485" height="7.466"/>
	<rect x="1338.552" y="161.294" fill="#FC611F" width="5.484" height="23.346"/>
	<rect x="1338.552" y="173.364" fill="#E64500" width="5.484" height="11.285"/>
</g>
</svg>
