<?xml version="1.0" encoding="utf-8"?>
<!-- Generator: Adobe Illustrator 16.0.0, SVG Export Plug-In . SVG Version: 6.00 Build 0)  -->
<!DOCTYPE svg PUBLIC "-//W3C//DTD SVG 1.1//EN" "http://www.w3.org/Graphics/SVG/1.1/DTD/svg11.dtd">
<svg version="1.1" id="Layer_1" xmlns="http://www.w3.org/2000/svg" xmlns:xlink="http://www.w3.org/1999/xlink" x="0px" y="0px"
	 width="283.461px" height="283.46px" viewBox="1275.595 0 283.461 283.46" enable-background="new 1275.595 0 283.461 283.46"
	 xml:space="preserve">
<circle fill="#D22215" cx="1417.325" cy="141.73" r="141.73"/>
<path fill="#A81411" d="M1488.665,94.305c-4.251,1.297-8.683,2.412-13.121,3.521c-31.495,6.681-73.489-11.453-91.623,18.134
	c-15.124,23.526-19.898,52.965-37.104,74l91.895,91.895c61.159-9.258,109.493-57.598,118.74-118.761L1488.665,94.305z"/>
<path fill="#FFFFFF" d="M1464.743,84.336h-94.836c-18.606,0-33.689,15.084-33.689,33.69v47.409
	c0,18.606,15.084,33.689,33.689,33.689h94.836c18.606,0,33.689-15.084,33.689-33.689v-47.409
	C1498.433,99.42,1483.349,84.336,1464.743,84.336L1464.743,84.336z M1441.958,144.037l-44.356,21.156
	c-1.183,0.563-2.548-0.297-2.548-1.606v-43.634c0-1.329,1.401-2.189,2.585-1.589l44.356,22.478
	C1443.316,141.51,1443.293,143.402,1441.958,144.037L1441.958,144.037z"/>
<path fill="#D1D1D1" d="M1464.743,84.336h-48.373v43.519l25.627,12.985c1.319,0.669,1.296,2.56-0.039,3.196l-25.588,12.204v42.884
	h48.373c18.606,0,33.689-15.084,33.689-33.689v-47.409C1498.433,99.42,1483.349,84.336,1464.743,84.336z"/>
</svg>
