<?xml version="1.0" encoding="utf-8"?>
<!-- Generator: Adobe Illustrator 16.0.0, SVG Export Plug-In . SVG Version: 6.00 Build 0)  -->
<!DOCTYPE svg PUBLIC "-//W3C//DTD SVG 1.1//EN" "http://www.w3.org/Graphics/SVG/1.1/DTD/svg11.dtd">
<svg version="1.1" id="Layer_1" xmlns="http://www.w3.org/2000/svg" xmlns:xlink="http://www.w3.org/1999/xlink" x="0px" y="0px"
	 width="283.461px" height="283.46px" viewBox="1275.595 0 283.461 283.46" enable-background="new 1275.595 0 283.461 283.46"
	 xml:space="preserve">
<g>
	<circle fill="#FDC00F" cx="1417.325" cy="141.73" r="141.73"/>
	<path fill="#F29A00" d="M1558.551,153.221c-0.368-0.434-61.786-61.908-62.452-62.347c-1.049-1.616-2.719-2.637-4.785-2.637
		l-0.094,0.011l-0.088-0.011c-1.711,0-3.364,0.734-4.781,1.899c-0.352-0.431-0.76-0.791-1.242-1.046
		c-0.643-1.066-1.525-1.891-2.803-2.081l-0.593,0.002c-0.142-0.159-6.755-6.896-7.237-7.268c-0.898-0.694-1.936-0.825-2.996-0.675
		l-0.388-0.204c-0.232-0.499-5.636-6.066-6.114-6.438c-1.542-1.193-3.476-0.802-5.25,0.031c-0.337-0.456-9.078-9.329-9.943-9.697
		c-2.934-1.253-5.831,1.812-7.54,3.9l-0.054-0.043c-0.096-0.056-6.137-6.406-6.801-6.8c-0.768-0.456-1.578-0.572-2.389-0.468
		c-0.137-0.283-5.375-5.664-5.604-5.924c-2.313-2.642-6.875-0.55-9.193,0.578c-2.148-1.429-6.426-4.11-9.07-1.797
		c-1.67,1.46-1.469,3.816-0.797,5.944c-0.434,0.193-0.842,0.383-1.188,0.553c-2.148-1.428-6.426-4.11-9.07-1.797
		c-1.233,1.08-1.424,2.65-1.18,4.255c-1.065-0.071-2.075-0.025-2.937,0.031l-0.462-0.408c-0.514-0.604-1.08-1.194-1.701-1.701
		c-1.599-1.885-3.784-3.713-6.14-2.875c-3.345,1.188-3.081,6.267-2.849,8.869c-1.001,0.675-2.404,1.692-3.521,2.911
		c-1.592-1.86-3.75-3.629-6.076-2.801c-3.346,1.188-3.082,6.267-2.85,8.869c-1.105,0.746-2.715,1.905-3.872,3.299
		c-1.554-1.701-3.565-3.166-5.726-2.401c-3.345,1.188-3.081,6.267-2.849,8.869c-1.126,0.76-2.765,1.944-3.927,3.373
		c-1.544-1.672-3.537-3.098-5.672-2.338c-1.641,0.584-2.406,2.106-2.74,3.81c-0.734-0.258-1.485-0.436-2.254-0.436
		c-4.017,0-6.584,3.824-5.859,8.489h-0.02l24.131,135.429l51.009,51.009h1.397l0.037,0.212c1.111,0.022,2.199,0.083,3.305,0.083
		C1491.728,283.46,1552.697,226.116,1558.551,153.221z"/>
	<path fill="#FFF78A" d="M1340.182,100.302h153.204c-0.708-2.735-4.438-4.49-6.582-5.318c-0.334-2.525-1.063-7.46-4.498-7.974
		c-2.744-0.411-4.635,2.33-5.822,4.668c-0.635-1.085-1.377-2.066-1.967-2.778c0.941-2.367,2.713-7.03-0.037-9.156
		c-2.778-2.148-6.852,0.782-8.909,2.339l-0.227-0.091l-0.326-0.408c0.94-2.367,2.713-7.03-0.037-9.156
		c-2.778-2.149-6.852,0.782-8.909,2.338l-0.709-0.284c-1.034-1.188-2.293-2.199-3.229-2.872c0.312-2.528,0.851-7.486-2.344-8.85
		c-3.232-1.377-6.432,2.486-8.031,4.51c-1.244-0.173-3.072-0.385-4.781-0.195c0.527-2.548,0.779-5.854-1.582-7.256
		c-3.019-1.794-6.703,1.612-8.557,3.404c-0.259-0.071-0.557-0.15-0.862-0.227l-0.3-0.578c1.377-2.143,4.014-6.378,1.726-8.992
		c-2.313-2.642-6.874-0.55-9.192,0.582c-2.148-1.429-6.426-4.11-9.07-1.797c-1.67,1.46-1.469,3.816-0.797,5.944
		c-0.434,0.193-0.842,0.383-1.188,0.553c-2.148-1.428-6.426-4.11-9.071-1.797c-1.232,1.08-1.423,2.65-1.179,4.254
		c-1.278-0.085-2.534-0.008-3.47,0.063c-1.472-2.118-4.462-6.188-7.77-5.011c-3.346,1.188-3.081,6.267-2.85,8.869
		c-1,0.675-2.403,1.692-3.521,2.911c-1.593-1.86-3.75-3.629-6.077-2.801c-3.345,1.188-3.081,6.267-2.849,8.87
		c-1.105,0.746-2.716,1.905-3.872,3.302c-1.554-1.701-3.566-3.167-5.726-2.401c-3.346,1.188-3.081,6.267-2.85,8.87
		c-1.125,0.759-2.764,1.944-3.926,3.373c-1.548-1.672-3.537-3.098-5.672-2.338c-3.345,1.188-3.081,6.267-2.849,8.869
		C1343.592,95.007,1340.222,97.473,1340.182,100.302z"/>
	<path fill="#FBB03B" d="M1395.612,65.278c-1.703,0-3.087,1.383-3.087,3.087c0,1.707,1.384,3.087,3.087,3.087
		s3.087-1.383,3.087-3.087C1398.698,66.659,1397.318,65.278,1395.612,65.278z M1382.083,71.452c-1.704,0-3.088,1.384-3.088,3.087
		s1.384,3.087,3.088,3.087c1.706,0,3.087-1.383,3.087-3.087C1385.17,72.832,1383.786,71.452,1382.083,71.452z M1373.938,83.669
		c-1.703,0-3.087,1.383-3.087,3.087s1.384,3.087,3.087,3.087s3.087-1.383,3.087-3.087S1375.642,83.669,1373.938,83.669z
		 M1404.544,75.803c-1.703,0-3.087,1.384-3.087,3.087c0,1.706,1.384,3.087,3.087,3.087s3.087-1.384,3.087-3.087
		C1407.631,77.183,1406.25,75.803,1404.544,75.803z M1421.854,80.582c-1.703,0-3.086,1.384-3.086,3.087
		c0,1.706,1.383,3.087,3.086,3.087c1.704,0,3.088-1.383,3.088-3.087C1424.941,81.962,1423.559,80.582,1421.854,80.582z
		 M1414.156,63.503c-1.706,0-3.087,1.383-3.087,3.087s1.383,3.087,3.087,3.087s3.087-1.383,3.087-3.087
		S1415.862,63.503,1414.156,63.503z M1439.379,74.539c-1.704,0-3.087,1.383-3.087,3.087s1.383,3.087,3.087,3.087
		c1.703,0,3.087-1.383,3.087-3.087C1442.465,75.919,1441.085,74.539,1439.379,74.539z M1428.028,70.205
		c-1.703,0-3.087,1.383-3.087,3.087s1.384,3.087,3.087,3.087c1.704,0,3.088-1.383,3.088-3.087
		C1431.116,71.584,1429.732,70.205,1428.028,70.205z M1391.378,83.669c-1.704,0-3.088,1.383-3.088,3.087s1.384,3.087,3.088,3.087
		c1.703,0,3.087-1.383,3.087-3.087C1394.464,85.052,1393.084,83.669,1391.378,83.669z M1439.379,84.264
		c-1.704,0-3.087,1.383-3.087,3.087s1.383,3.087,3.087,3.087c1.703,0,3.087-1.383,3.087-3.087
		C1442.465,85.647,1441.085,84.264,1439.379,84.264z M1459.198,77.625c-1.707,0-3.087,1.383-3.087,3.087s1.384,3.087,3.087,3.087
		s3.087-1.383,3.087-3.087S1460.901,77.625,1459.198,77.625z M1454.728,87.351c-1.703,0-3.087,1.383-3.087,3.087
		s1.384,3.087,3.087,3.087s3.087-1.384,3.087-3.087S1456.432,87.351,1454.728,87.351z M1411.069,84.264
		c-1.703,0-3.087,1.383-3.087,3.087s1.384,3.087,3.087,3.087s3.087-1.383,3.087-3.087S1412.775,84.264,1411.069,84.264z"/>
	<path fill="#FFFFFF" d="M1496.975,96.952c0.848-4.771-1.761-8.714-5.842-8.714c-4.014,0-7.821,3.824-8.605,8.49h-0.04
		c0.575-4.669-2.121-8.49-6.137-8.49c-4.014,0-7.699,3.824-8.332,8.49h-0.039c0.422-4.669-2.396-8.49-6.412-8.49
		c-4.014,0-7.574,3.824-8.056,8.49h-0.04c0.272-4.669-2.67-8.49-6.687-8.49s-7.452,3.824-7.78,8.49h-0.04
		c0.122-4.669-2.945-8.49-6.962-8.49c-4.014,0-7.328,3.824-7.507,8.49h-0.028c-0.03-4.669-3.22-8.49-7.233-8.49
		c-4.017,0-7.202,3.824-7.231,8.49h-0.039c-0.182-4.669-3.495-8.49-7.51-8.49c-4.014,0-7.08,3.824-6.955,8.49h-0.04
		c-0.332-4.669-3.771-8.49-7.784-8.49s-6.956,3.824-6.682,8.49h-0.039c-0.482-4.669-4.045-8.49-8.059-8.49s-6.832,3.824-6.406,8.49
		h-0.04c-0.635-4.669-4.32-8.49-8.334-8.49s-6.71,3.824-6.132,8.49h-0.039c-0.785-4.669-4.596-8.49-8.609-8.49
		c-4.016,0-6.584,3.824-5.858,8.49h-0.021l24.132,135.428h111.317l23.896-134.547L1496.975,96.952z"/>
	<path fill="#FC611F" d="M1351.945,96.728c-0.785-4.669-4.596-8.489-8.608-8.489c-4.017,0-6.585,3.824-5.859,8.489h-0.02
		l24.131,135.428h10.142L1351.977,96.64l0.003,0.088H1351.945L1351.945,96.728z M1380.991,96.728
		c-0.481-4.669-4.045-8.489-8.059-8.489c-4.017,0-6.834,3.824-6.408,8.489h-0.021l15.358,135.428h10.142L1381.03,96.64l-0.002,0.088
		H1380.991L1380.991,96.728z M1410.034,96.728c-0.182-4.669-3.492-8.489-7.509-8.489s-7.081,3.824-6.959,8.489h-0.021l6.582,135.428
		h10.143l-2.194-135.516l-0.008,0.088H1410.034L1410.034,96.728z"/>
	<path fill="#D7ECED" d="M1491.133,88.238c-4.014,0-7.821,3.824-8.605,8.49h-0.04c0.575-4.669-2.121-8.49-6.137-8.49
		c-4.014,0-7.699,3.824-8.332,8.49h-0.039c0.422-4.669-2.396-8.49-6.412-8.49c-4.014,0-7.574,3.824-8.056,8.49h-0.04
		c0.272-4.669-2.67-8.49-6.687-8.49s-7.452,3.824-7.78,8.49h-0.04c0.122-4.669-2.945-8.49-6.962-8.49
		c-4.014,0-7.328,3.824-7.507,8.49h-0.028c-0.03-4.663-3.214-8.481-7.225-8.49v143.916h55.662l23.896-134.547l0.172-0.658
		C1497.822,92.181,1495.214,88.238,1491.133,88.238z"/>
	<path fill="#E64500" d="M1439.081,96.728c0.121-4.669-2.943-8.489-6.959-8.489c-4.018,0-7.328,3.824-7.51,8.489h-0.02
		l-2.191,135.428h10.143l6.587-135.516l-0.015,0.088H1439.081L1439.081,96.728z M1468.167,96.728h-0.041
		c0.426-4.669-2.392-8.489-6.408-8.489s-7.577,3.824-8.059,8.489h-0.02l-10.968,135.428h10.143l15.366-135.516L1468.167,96.728z
		 M1497.173,96.728c0.729-4.669-1.843-8.489-5.859-8.489s-7.823,3.824-8.608,8.489h-0.02l-19.74,135.428h10.142l24.146-135.516
		l-0.026,0.088H1497.173L1497.173,96.728z"/>
	<ellipse fill="#FC611F" cx="1417.637" cy="173.138" rx="49.042" ry="25.217"/>
	<path fill="#E64500" d="M1417.243,147.913v50.436c27.085,0,49.041-11.29,49.041-25.217
		C1466.284,159.206,1444.327,147.913,1417.243,147.913z"/>
	<ellipse fill="#FFFFFF" cx="1417.243" cy="173.138" rx="39.939" ry="17.177"/>
	<path fill="#D7ECED" d="M1417.646,155.951v34.359c21.875-0.094,39.543-7.744,39.543-17.178
		C1457.188,163.695,1439.521,156.044,1417.646,155.951z"/>
</g>
</svg>
