<?xml version="1.0" encoding="utf-8"?>
<!-- Generator: Adobe Illustrator 16.0.0, SVG Export Plug-In . SVG Version: 6.00 Build 0)  -->
<!DOCTYPE svg PUBLIC "-//W3C//DTD SVG 1.1//EN" "http://www.w3.org/Graphics/SVG/1.1/DTD/svg11.dtd">
<svg version="1.1" id="Capa_1" xmlns="http://www.w3.org/2000/svg" xmlns:xlink="http://www.w3.org/1999/xlink" x="0px" y="0px"
	 width="3130.99px" height="1984.25px" viewBox="1453.641 0 3130.99 1984.25" enable-background="new 1453.641 0 3130.99 1984.25"
	 xml:space="preserve">
<g>
	<polygon points="3643.188,678.344 3883.465,918.621 3883.465,678.344 	"/>
	<path d="M3273.282,678.344h-313.408l397.643,397.643h-369.905l-397.643-397.643h-333.024l397.643,397.643h-369.905
		l-343.428-343.429c-4.081,10.063-6.376,21.042-6.376,32.57V1844.92c0,60.189,48.793,108.983,108.983,108.983h1730.62
		c60.19,0,108.983-48.794,108.983-108.983v-768.934h-212.54L3273.282,678.344z"/>
	<polygon points="3555.645,30.347 3226.053,78.101 2889.528,528.643 3219.127,480.896 	"/>
	<polygon points="2859.973,131.137 2549.801,176.072 2213.277,626.621 2523.456,581.68 	"/>
	<path d="M3860.703,300.252l-29.274-202.064l-246.235,329.67l202.064-29.274C3834.691,391.712,3867.575,347.692,3860.703,300.252z"
		/>
	<path d="M2183.722,229.109l-210.159,30.445c-47.428,6.872-80.311,50.898-73.439,98.331l26.719,184.423l3.727,25.737l86.955-116.419
		L2183.722,229.109z"/>
</g>
</svg>
